<?xml version="1.0" encoding="UTF-8"?><svg xmlns="http://www.w3.org/2000/svg" xmlns:xlink="http://www.w3.org/1999/xlink" clip-rule="evenodd" stroke-miterlimit="4.00" viewBox="0 0 1024 768"><desc>SVG generated by Keynote</desc><defs></defs><g transform="matrix(1.00, 0.00, -0.00, -1.00, 0.0, 768.0)"><path d="M 0.0 0.0 L 1024.0 0.0 L 1024.0 768.0 L 0.0 768.0 Z M 0.0 0.0 " fill="#FEFFFF"></path><image xlink:href="../../8BC3296F-D51B-449D-8430-11A566EACAEF/assets/06F1C494730F58F2EE02BB794D67B1D8.png" width="400.00" height="297.00" transform="matrix(1.00, 0.00, -0.00, -1.00, 85.0, 697.0)"></image><g><clipPath id="clip-48"><path d="M 75.1 74.2 L 273.1 74.2 L 273.1 346.2 L 75.1 346.2 Z M 75.1 74.2 "></path></clipPath><g clip-path="url(#clip-48)"><image xlink:href="../../8BC3296F-D51B-449D-8430-11A566EACAEF/assets/58A95E59B0F3251B475D6F44160FBDED.png" width="196.00" height="270.00" transform="matrix(1.00, 0.00, -0.00, -1.00, 76.1, 345.2)" opacity="0.50"></image><path d="M 82.1 341.2 L 266.1 341.2 L 266.1 83.2 L 82.1 83.2 Z M 82.1 341.2 " fill="#000000"></path><path d="M 0.0 0.0 L 184.0 0.0 L 184.0 258.0 L 0.0 258.0 Z M 0.0 0.0 " fill="none" stroke="#85878C" stroke-width="2.00" transform="matrix(1.00, 0.00, 0.00, -1.00, 82.1, 341.2)"></path></g></g><g><clipPath id="clip-49"><path d="M 81.1 84.2 L 267.1 84.2 L 267.1 342.2 L 81.1 342.2 Z M 81.1 84.2 "></path></clipPath><g clip-path="url(#clip-49)"><text xml:space="preserve" font-family="Helvetica-Light" font-size="24.0" fill="#FEFFFF" transform="matrix(1.00, 0.00, -0.00, -1.00, 87.0, 313.0)">L</text><text xml:space="preserve" font-family="Helvetica-Light" font-size="24.0" fill="#FEFFFF" transform="matrix(1.00, 0.00, -0.00, -1.00, 100.3, 313.0)">o</text><text xml:space="preserve" font-family="Helvetica-Light" font-size="24.0" fill="#FEFFFF" transform="matrix(1.00, 0.00, -0.00, -1.00, 113.7, 313.0)">o</text><text xml:space="preserve" font-family="Helvetica-Light" font-size="24.0" fill="#FEFFFF" transform="matrix(1.00, 0.00, -0.00, -1.00, 127.0, 313.0)">p</text><text xml:space="preserve" font-family="Helvetica-Light" font-size="24.0" fill="#FEFFFF" transform="matrix(1.00, 0.00, -0.00, -1.00, 141.7, 313.0)">e</text><text xml:space="preserve" font-family="Helvetica-Light" font-size="24.0" fill="#FEFFFF" transform="matrix(1.00, 0.00, -0.00, -1.00, 155.0, 313.0)">r</text><text xml:space="preserve" font-family="Helvetica-Light" font-size="24.0" fill="#FEFFFF" transform="matrix(1.00, 0.00, -0.00, -1.00, 163.0, 313.0)">T</text><text xml:space="preserve" font-family="Helvetica-Light" font-size="24.0" fill="#FEFFFF" transform="matrix(1.00, 0.00, -0.00, -1.00, 176.4, 313.0)">h</text><text xml:space="preserve" font-family="Helvetica-Light" font-size="24.0" fill="#FEFFFF" transform="matrix(1.00, 0.00, -0.00, -1.00, 189.7, 313.0)">r</text><text xml:space="preserve" font-family="Helvetica-Light" font-size="24.0" fill="#FEFFFF" transform="matrix(1.00, 0.00, -0.00, -1.00, 197.3, 313.0)">e</text><text xml:space="preserve" font-family="Helvetica-Light" font-size="24.0" fill="#FEFFFF" transform="matrix(1.00, 0.00, -0.00, -1.00, 210.6, 313.0)">a</text><text xml:space="preserve" font-family="Helvetica-Light" font-size="24.0" fill="#FEFFFF" transform="matrix(1.00, 0.00, -0.00, -1.00, 224.0, 313.0)">d</text></g></g><g><clipPath id="clip-50"><path d="M 120.1 108.1 L 228.1 108.1 L 228.1 312.2 L 120.1 312.2 Z M 120.1 108.1 "></path></clipPath><g clip-path="url(#clip-50)"><image xlink:href="../../8BC3296F-D51B-449D-8430-11A566EACAEF/assets/685759B0EC130A20371B41053208D1BC.png" width="106.00" height="202.00" transform="matrix(1.00, 0.00, -0.00, -1.00, 121.1, 311.2)" opacity="0.50"></image><path d="M 124.1 310.2 L 224.1 310.2 L 224.1 114.1 L 124.1 114.1 Z M 124.1 310.2 " fill="#52575F"></path></g></g><g><clipPath id="clip-51"><path d="M 122.1 114.1 L 226.1 114.1 L 226.1 312.2 L 122.1 312.2 Z M 122.1 114.1 "></path></clipPath><g clip-path="url(#clip-51)"><text xml:space="preserve" font-family="Helvetica-Light" font-size="24.0" fill="#FEFFFE" transform="matrix(1.00, 0.00, -0.00, -1.00, 136.0, 283.0)">L</text><text xml:space="preserve" font-family="Helvetica-Light" font-size="24.0" fill="#FEFFFE" transform="matrix(1.00, 0.00, -0.00, -1.00, 149.3, 283.0)">o</text><text xml:space="preserve" font-family="Helvetica-Light" font-size="24.0" fill="#FEFFFE" transform="matrix(1.00, 0.00, -0.00, -1.00, 162.7, 283.0)">o</text><text xml:space="preserve" font-family="Helvetica-Light" font-size="24.0" fill="#FEFFFE" transform="matrix(1.00, 0.00, -0.00, -1.00, 176.0, 283.0)">p</text><text xml:space="preserve" font-family="Helvetica-Light" font-size="24.0" fill="#FEFFFE" transform="matrix(1.00, 0.00, -0.00, -1.00, 190.7, 283.0)">e</text><text xml:space="preserve" font-family="Helvetica-Light" font-size="24.0" fill="#FEFFFE" transform="matrix(1.00, 0.00, -0.00, -1.00, 204.0, 283.0)">r</text></g></g><image xlink:href="../../B284B839-1E2C-422F-9A4D-C38B5CF3EA60/assets/DC4DDBD68087B863A68FB6437996E579.png" width="392.00" height="297.00" transform="matrix(1.00, 0.00, -0.00, -1.00, 89.0, 697.0)"></image><g><clipPath id="clip-52"><path d="M 368.6 222.9 L 487.3 222.9 L 487.3 234.5 L 368.6 234.5 Z M 368.6 222.9 "></path></clipPath><g clip-path="url(#clip-52)"><path d="M 0.0 0.0 L 107.1 0.0 L 108.1 0.0 " fill="none" stroke="#000000" stroke-width="2.00" transform="matrix(1.00, 0.00, 0.00, -1.00, 369.6, 228.7)"></path><path d="M 476.7 223.9 L 486.3 228.7 L 476.7 233.5 Z M 476.7 223.9 " fill="#000000"></path></g></g><g><clipPath id="clip-53"><path d="M 362.8 194.7 L 493.1 194.7 L 493.1 228.7 L 362.8 228.7 Z M 362.8 194.7 "></path></clipPath><g clip-path="url(#clip-53)"><text xml:space="preserve" font-family="Helvetica-Light" font-size="20.0" fill="#000000" transform="matrix(1.00, 0.00, -0.00, -1.00, 368.0, 204.0)">L</text><text xml:space="preserve" font-family="Helvetica-Light" font-size="20.0" fill="#000000" transform="matrix(1.00, 0.00, -0.00, -1.00, 379.1, 204.0)">o</text><text xml:space="preserve" font-family="Helvetica-Light" font-size="20.0" fill="#000000" transform="matrix(1.00, 0.00, -0.00, -1.00, 390.2, 204.0)">o</text><text xml:space="preserve" font-family="Helvetica-Light" font-size="20.0" fill="#000000" transform="matrix(1.00, 0.00, -0.00, -1.00, 401.4, 204.0)">p</text><text xml:space="preserve" font-family="Helvetica-Light" font-size="20.0" fill="#000000" transform="matrix(1.00, 0.00, -0.00, -1.00, 413.6, 204.0)">e</text><text xml:space="preserve" font-family="Helvetica-Light" font-size="20.0" fill="#000000" transform="matrix(1.00, 0.00, -0.00, -1.00, 424.7, 204.0)">r</text><text xml:space="preserve" font-family="Helvetica-Light" font-size="20.0" fill="#000000" transform="matrix(1.00, 0.00, -0.00, -1.00, 429.5, 204.0)">.</text><text xml:space="preserve" font-family="Helvetica-Light" font-size="20.0" fill="#000000" transform="matrix(1.00, 0.00, -0.00, -1.00, 435.1, 204.0)">l</text><text xml:space="preserve" font-family="Helvetica-Light" font-size="20.0" fill="#000000" transform="matrix(1.00, 0.00, -0.00, -1.00, 439.5, 204.0)">o</text><text xml:space="preserve" font-family="Helvetica-Light" font-size="20.0" fill="#000000" transform="matrix(1.00, 0.00, -0.00, -1.00, 450.6, 204.0)">o</text><text xml:space="preserve" font-family="Helvetica-Light" font-size="20.0" fill="#000000" transform="matrix(1.00, 0.00, -0.00, -1.00, 461.8, 204.0)">p</text><text xml:space="preserve" font-family="Helvetica-Light" font-size="20.0" fill="#000000" transform="matrix(1.00, 0.00, -0.00, -1.00, 474.0, 204.0)">(</text><text xml:space="preserve" font-family="Helvetica-Light" font-size="20.0" fill="#000000" transform="matrix(1.00, 0.00, -0.00, -1.00, 480.6, 204.0)">)</text></g></g><g><clipPath id="clip-54"><path d="M 582.8 74.2 L 780.8 74.2 L 780.8 346.2 L 582.8 346.2 Z M 582.8 74.2 "></path></clipPath><g clip-path="url(#clip-54)"><image xlink:href="../../8BC3296F-D51B-449D-8430-11A566EACAEF/assets/58A95E59B0F3251B475D6F44160FBDED.png" width="196.00" height="270.00" transform="matrix(1.00, 0.00, -0.00, -1.00, 583.8, 345.2)" opacity="0.50"></image><path d="M 589.8 341.2 L 773.8 341.2 L 773.8 83.2 L 589.8 83.2 Z M 589.8 341.2 " fill="#000000"></path><path d="M 0.0 0.0 L 184.0 0.0 L 184.0 258.0 L 0.0 258.0 Z M 0.0 0.0 " fill="none" stroke="#85878C" stroke-width="2.00" transform="matrix(1.00, 0.00, 0.00, -1.00, 589.8, 341.2)"></path></g></g><g><clipPath id="clip-55"><path d="M 588.8 84.2 L 774.8 84.2 L 774.8 342.2 L 588.8 342.2 Z M 588.8 84.2 "></path></clipPath><g clip-path="url(#clip-55)"><text xml:space="preserve" font-family="Helvetica-Light" font-size="24.0" fill="#FEFFFF" transform="matrix(1.00, 0.00, -0.00, -1.00, 595.0, 313.0)">L</text><text xml:space="preserve" font-family="Helvetica-Light" font-size="24.0" fill="#FEFFFF" transform="matrix(1.00, 0.00, -0.00, -1.00, 608.3, 313.0)">o</text><text xml:space="preserve" font-family="Helvetica-Light" font-size="24.0" fill="#FEFFFF" transform="matrix(1.00, 0.00, -0.00, -1.00, 621.7, 313.0)">o</text><text xml:space="preserve" font-family="Helvetica-Light" font-size="24.0" fill="#FEFFFF" transform="matrix(1.00, 0.00, -0.00, -1.00, 635.0, 313.0)">p</text><text xml:space="preserve" font-family="Helvetica-Light" font-size="24.0" fill="#FEFFFF" transform="matrix(1.00, 0.00, -0.00, -1.00, 649.7, 313.0)">e</text><text xml:space="preserve" font-family="Helvetica-Light" font-size="24.0" fill="#FEFFFF" transform="matrix(1.00, 0.00, -0.00, -1.00, 663.0, 313.0)">r</text><text xml:space="preserve" font-family="Helvetica-Light" font-size="24.0" fill="#FEFFFF" transform="matrix(1.00, 0.00, -0.00, -1.00, 671.0, 313.0)">T</text><text xml:space="preserve" font-family="Helvetica-Light" font-size="24.0" fill="#FEFFFF" transform="matrix(1.00, 0.00, -0.00, -1.00, 684.4, 313.0)">h</text><text xml:space="preserve" font-family="Helvetica-Light" font-size="24.0" fill="#FEFFFF" transform="matrix(1.00, 0.00, -0.00, -1.00, 697.7, 313.0)">r</text><text xml:space="preserve" font-family="Helvetica-Light" font-size="24.0" fill="#FEFFFF" transform="matrix(1.00, 0.00, -0.00, -1.00, 705.3, 313.0)">e</text><text xml:space="preserve" font-family="Helvetica-Light" font-size="24.0" fill="#FEFFFF" transform="matrix(1.00, 0.00, -0.00, -1.00, 718.6, 313.0)">a</text><text xml:space="preserve" font-family="Helvetica-Light" font-size="24.0" fill="#FEFFFF" transform="matrix(1.00, 0.00, -0.00, -1.00, 732.0, 313.0)">d</text></g></g><g><clipPath id="clip-56"><path d="M 617.6 108.1 L 746.1 108.1 L 746.1 312.2 L 617.6 312.2 Z M 617.6 108.1 "></path></clipPath><g clip-path="url(#clip-56)"><image xlink:href="../../B284B839-1E2C-422F-9A4D-C38B5CF3EA60/assets/9B4362435E9CF1ACDF6B245843FADEA6.png" width="126.00" height="202.00" transform="matrix(1.00, 0.00, -0.00, -1.00, 618.6, 311.2)" opacity="0.50"></image><path d="M 621.6 310.2 L 742.1 310.2 L 742.1 114.1 L 621.6 114.1 Z M 621.6 310.2 " fill="#52575F"></path></g></g><g><clipPath id="clip-57"><path d="M 619.6 114.1 L 744.1 114.1 L 744.1 312.2 L 619.6 312.2 Z M 619.6 114.1 "></path></clipPath><g clip-path="url(#clip-57)"><text xml:space="preserve" font-family="Helvetica-Light" font-size="24.0" fill="#FEFFFE" transform="matrix(1.00, 0.00, -0.00, -1.00, 644.0, 283.0)">L</text><text xml:space="preserve" font-family="Helvetica-Light" font-size="24.0" fill="#FEFFFE" transform="matrix(1.00, 0.00, -0.00, -1.00, 657.3, 283.0)">o</text><text xml:space="preserve" font-family="Helvetica-Light" font-size="24.0" fill="#FEFFFE" transform="matrix(1.00, 0.00, -0.00, -1.00, 670.7, 283.0)">o</text><text xml:space="preserve" font-family="Helvetica-Light" font-size="24.0" fill="#FEFFFE" transform="matrix(1.00, 0.00, -0.00, -1.00, 684.0, 283.0)">p</text><text xml:space="preserve" font-family="Helvetica-Light" font-size="24.0" fill="#FEFFFE" transform="matrix(1.00, 0.00, -0.00, -1.00, 698.7, 283.0)">e</text><text xml:space="preserve" font-family="Helvetica-Light" font-size="24.0" fill="#FEFFFE" transform="matrix(1.00, 0.00, -0.00, -1.00, 712.0, 283.0)">r</text></g></g><g><clipPath id="clip-58"><path d="M 636.8 115.1 L 726.8 115.1 L 726.8 279.1 L 636.8 279.1 Z M 636.8 115.1 "></path></clipPath><g clip-path="url(#clip-58)"><path d="M 637.8 278.1 L 725.8 278.1 L 725.8 116.1 L 637.8 116.1 Z M 637.8 278.1 " fill="#A6AAA8"></path></g></g><g><clipPath id="clip-59"><path d="M 637.3 115.6 L 805.5 115.6 L 805.5 278.6 L 637.3 278.6 Z M 637.3 115.6 "></path></clipPath><g clip-path="url(#clip-59)"><text xml:space="preserve" font-family="Helvetica-Light" font-size="18.0" fill="#FEFFFF" transform="matrix(1.00, 0.00, -0.00, -1.00, 645.0, 256.0)">M</text><text xml:space="preserve" font-family="Helvetica-Light" font-size="18.0" fill="#FEFFFF" transform="matrix(1.00, 0.00, -0.00, -1.00, 660.0, 256.0)">e</text><text xml:space="preserve" font-family="Helvetica-Light" font-size="18.0" fill="#FEFFFF" transform="matrix(1.00, 0.00, -0.00, -1.00, 670.0, 256.0)">s</text><text xml:space="preserve" font-family="Helvetica-Light" font-size="18.0" fill="#FEFFFF" transform="matrix(1.00, 0.00, -0.00, -1.00, 679.0, 256.0)">s</text><text xml:space="preserve" font-family="Helvetica-Light" font-size="18.0" fill="#FEFFFF" transform="matrix(1.00, 0.00, -0.00, -1.00, 688.0, 256.0)">a</text><text xml:space="preserve" font-family="Helvetica-Light" font-size="18.0" fill="#FEFFFF" transform="matrix(1.00, 0.00, -0.00, -1.00, 698.0, 256.0)">g</text><text xml:space="preserve" font-family="Helvetica-Light" font-size="18.0" fill="#FEFFFF" transform="matrix(1.00, 0.00, -0.00, -1.00, 709.0, 256.0)">e</text><text xml:space="preserve" font-family="Helvetica-Light" font-size="18.0" fill="#FEFFFF" transform="matrix(1.00, 0.00, -0.00, -1.00, 719.0, 256.0)"> </text><text xml:space="preserve" font-family="Helvetica-Light" font-size="18.0" fill="#FEFFFF" transform="matrix(1.00, 0.00, -0.00, -1.00, 652.0, 234.0)"> </text><text xml:space="preserve" font-family="Helvetica-Light" font-size="18.0" fill="#FEFFFF" transform="matrix(1.00, 0.00, -0.00, -1.00, 657.0, 234.0)">Q</text><text xml:space="preserve" font-family="Helvetica-Light" font-size="18.0" fill="#FEFFFF" transform="matrix(1.00, 0.00, -0.00, -1.00, 671.0, 234.0)">u</text><text xml:space="preserve" font-family="Helvetica-Light" font-size="18.0" fill="#FEFFFF" transform="matrix(1.00, 0.00, -0.00, -1.00, 681.0, 234.0)">e</text><text xml:space="preserve" font-family="Helvetica-Light" font-size="18.0" fill="#FEFFFF" transform="matrix(1.00, 0.00, -0.00, -1.00, 691.0, 234.0)">u</text><text xml:space="preserve" font-family="Helvetica-Light" font-size="18.0" fill="#FEFFFF" transform="matrix(1.00, 0.00, -0.00, -1.00, 701.0, 234.0)">e</text><text xml:space="preserve" font-family="Helvetica-Light" font-size="18.0" fill="#FEFFFF" transform="matrix(1.00, 0.00, -0.00, -1.00, 711.0, 234.0)"> </text></g></g><g><clipPath id="clip-60"><path d="M 534.6 198.8 L 676.4 198.8 L 676.4 260.3 L 534.6 260.3 Z M 534.6 198.8 "></path></clipPath><g clip-path="url(#clip-60)"><image xlink:href="../../B284B839-1E2C-422F-9A4D-C38B5CF3EA60/assets/1116F6A539AC6842742BDF50F1684942.png" width="93.00" height="39.00" transform="matrix(1.49, 0.00, -0.00, -1.50, 536.1, 258.8)" opacity="0.50"></image></g></g><g><clipPath id="clip-61"><path d="M 540.6 257.3 L 670.4 257.3 L 670.4 207.8 L 540.6 207.8 Z M 540.6 257.3 "></path></clipPath><g clip-path="url(#clip-61)"><g><clipPath id="clip-62"><path d="M 534.6 198.8 L 676.4 198.8 L 676.4 260.3 L 534.6 260.3 Z M 534.6 198.8 "></path></clipPath><g clip-path="url(#clip-62)"><image xlink:href="3CB25DBDE05737074110E2BCF1D65CFD.jpeg" width="450.00" height="450.00" transform="matrix(1.00, 0.00, -0.00, -1.00, 540.6, 257.3)"></image><path d="M 540.6 207.8 L 670.4 207.8 L 670.4 257.3 L 540.6 257.3 Z M 540.6 207.8 " fill="#009BFC" fill-opacity="0.50"></path></g></g></g></g><g><clipPath id="clip-63"><path d="M 539.1 206.3 L 671.9 206.3 L 671.9 257.3 L 539.1 257.3 Z M 539.1 206.3 "></path></clipPath><g clip-path="url(#clip-63)"><text xml:space="preserve" font-family="Helvetica-Light" font-size="20.0" fill="#FEFFFE" transform="matrix(1.50, 0.00, -0.00, -1.50, 547.0, 221.0)">M</text><text xml:space="preserve" font-family="Helvetica-Light" font-size="20.0" fill="#FEFFFE" transform="matrix(1.50, 0.00, -0.00, -1.50, 571.1, 221.0)">e</text><text xml:space="preserve" font-family="Helvetica-Light" font-size="20.0" fill="#FEFFFE" transform="matrix(1.50, 0.00, -0.00, -1.50, 586.8, 221.0)">s</text><text xml:space="preserve" font-family="Helvetica-Light" font-size="20.0" fill="#FEFFFE" transform="matrix(1.50, 0.00, -0.00, -1.50, 600.9, 221.0)">s</text><text xml:space="preserve" font-family="Helvetica-Light" font-size="20.0" fill="#FEFFFE" transform="matrix(1.50, 0.00, -0.00, -1.50, 615.0, 221.0)">a</text><text xml:space="preserve" font-family="Helvetica-Light" font-size="20.0" fill="#FEFFFE" transform="matrix(1.50, 0.00, -0.00, -1.50, 630.7, 221.0)">g</text><text xml:space="preserve" font-family="Helvetica-Light" font-size="20.0" fill="#FEFFFE" transform="matrix(1.50, 0.00, -0.00, -1.50, 648.1, 221.0)">e</text></g></g><g><clipPath id="clip-64"><path d="M 631.6 167.2 L 773.4 167.2 L 773.4 228.7 L 631.6 228.7 Z M 631.6 167.2 "></path></clipPath><g clip-path="url(#clip-64)"><image xlink:href="../../B284B839-1E2C-422F-9A4D-C38B5CF3EA60/assets/1116F6A539AC6842742BDF50F1684942.png" width="93.00" height="39.00" transform="matrix(1.49, 0.00, -0.00, -1.50, 633.1, 227.2)" opacity="0.50"></image></g></g><g><clipPath id="clip-65"><path d="M 637.6 225.7 L 767.4 225.7 L 767.4 176.2 L 637.6 176.2 Z M 637.6 225.7 "></path></clipPath><g clip-path="url(#clip-65)"><g><clipPath id="clip-66"><path d="M 631.6 167.2 L 773.4 167.2 L 773.4 228.7 L 631.6 228.7 Z M 631.6 167.2 "></path></clipPath><g clip-path="url(#clip-66)"><image xlink:href="../../B284B839-1E2C-422F-9A4D-C38B5CF3EA60/assets/3CB25DBDE05737074110E2BCF1D65CFD.jpeg" width="450.00" height="450.00" transform="matrix(1.00, 0.00, -0.00, -1.00, 637.6, 225.7)"></image><path d="M 637.6 176.2 L 767.4 176.2 L 767.4 225.7 L 637.6 225.7 Z M 637.6 176.2 " fill="#009BFC" fill-opacity="0.50"></path></g></g></g></g><g><clipPath id="clip-67"><path d="M 636.1 174.7 L 768.9 174.7 L 768.9 225.7 L 636.1 225.7 Z M 636.1 174.7 "></path></clipPath><g clip-path="url(#clip-67)"><text xml:space="preserve" font-family="Helvetica-Light" font-size="20.0" fill="#FEFFFE" transform="matrix(1.50, 0.00, -0.00, -1.50, 644.0, 189.0)">M</text><text xml:space="preserve" font-family="Helvetica-Light" font-size="20.0" fill="#FEFFFE" transform="matrix(1.50, 0.00, -0.00, -1.50, 668.1, 189.0)">e</text><text xml:space="preserve" font-family="Helvetica-Light" font-size="20.0" fill="#FEFFFE" transform="matrix(1.50, 0.00, -0.00, -1.50, 683.8, 189.0)">s</text><text xml:space="preserve" font-family="Helvetica-Light" font-size="20.0" fill="#FEFFFE" transform="matrix(1.50, 0.00, -0.00, -1.50, 697.9, 189.0)">s</text><text xml:space="preserve" font-family="Helvetica-Light" font-size="20.0" fill="#FEFFFE" transform="matrix(1.50, 0.00, -0.00, -1.50, 712.0, 189.0)">a</text><text xml:space="preserve" font-family="Helvetica-Light" font-size="20.0" fill="#FEFFFE" transform="matrix(1.50, 0.00, -0.00, -1.50, 727.7, 189.0)">g</text><text xml:space="preserve" font-family="Helvetica-Light" font-size="20.0" fill="#FEFFFE" transform="matrix(1.50, 0.00, -0.00, -1.50, 745.1, 189.0)">e</text></g></g><g><clipPath id="clip-68"><path d="M 685.0 143.0 L 841.9 143.0 L 841.9 218.6 L 685.0 218.6 Z M 685.0 143.0 "></path></clipPath><g clip-path="url(#clip-68)"><image xlink:href="../../B284B839-1E2C-422F-9A4D-C38B5CF3EA60/assets/AF55A11A6054C352C9EC6BF56CBD976B.png" width="103.00" height="48.00" transform="matrix(1.49, 0.00, -0.00, -1.51, 686.5, 217.1)" opacity="0.50"></image></g></g><g><clipPath id="clip-69"><path d="M 691.0 215.6 L 835.9 215.6 L 835.9 152.0 L 691.0 152.0 Z M 691.0 215.6 "></path></clipPath><g clip-path="url(#clip-69)"><g><clipPath id="clip-70"><path d="M 685.0 143.0 L 841.9 143.0 L 841.9 218.6 L 685.0 218.6 Z M 685.0 143.0 "></path></clipPath><g clip-path="url(#clip-70)"><image xlink:href="../../B284B839-1E2C-422F-9A4D-C38B5CF3EA60/assets/3CB25DBDE05737074110E2BCF1D65CFD.jpeg" width="450.00" height="450.00" transform="matrix(1.00, 0.00, -0.00, -1.00, 691.0, 215.6)"></image><path d="M 691.0 152.0 L 835.9 152.0 L 835.9 215.6 L 691.0 215.6 Z M 691.0 152.0 " fill="#009BFC" fill-opacity="0.50"></path></g></g></g></g><g><clipPath id="clip-71"><path d="M 689.5 152.0 L 837.4 152.0 L 837.4 215.6 L 689.5 215.6 Z M 689.5 152.0 "></path></clipPath><g clip-path="url(#clip-71)"><text xml:space="preserve" font-family="Helvetica-Light" font-size="20.0" fill="#FEFFFE" transform="matrix(1.50, 0.00, -0.00, -1.50, 702.0, 173.0)">M</text><text xml:space="preserve" font-family="Helvetica-Light" font-size="20.0" fill="#FEFFFE" transform="matrix(1.50, 0.00, -0.00, -1.50, 727.0, 173.0)">e</text><text xml:space="preserve" font-family="Helvetica-Light" font-size="20.0" fill="#FEFFFE" transform="matrix(1.50, 0.00, -0.00, -1.50, 743.7, 173.0)">s</text><text xml:space="preserve" font-family="Helvetica-Light" font-size="20.0" fill="#FEFFFE" transform="matrix(1.50, 0.00, -0.00, -1.50, 758.7, 173.0)">s</text><text xml:space="preserve" font-family="Helvetica-Light" font-size="20.0" fill="#FEFFFE" transform="matrix(1.50, 0.00, -0.00, -1.50, 773.7, 173.0)">a</text><text xml:space="preserve" font-family="Helvetica-Light" font-size="20.0" fill="#FEFFFE" transform="matrix(1.50, 0.00, -0.00, -1.50, 790.4, 173.0)">g</text><text xml:space="preserve" font-family="Helvetica-Light" font-size="20.0" fill="#FEFFFE" transform="matrix(1.50, 0.00, -0.00, -1.50, 808.7, 173.0)">e</text></g></g><g><clipPath id="clip-72"><path d="M 631.6 109.5 L 773.4 109.5 L 773.4 170.9 L 631.6 170.9 Z M 631.6 109.5 "></path></clipPath><g clip-path="url(#clip-72)"><image xlink:href="../../B284B839-1E2C-422F-9A4D-C38B5CF3EA60/assets/1116F6A539AC6842742BDF50F1684942.png" width="93.00" height="39.00" transform="matrix(1.49, 0.00, -0.00, -1.50, 633.1, 169.4)" opacity="0.50"></image></g></g><g><clipPath id="clip-73"><path d="M 637.6 167.9 L 767.4 167.9 L 767.4 118.5 L 637.6 118.5 Z M 637.6 167.9 "></path></clipPath><g clip-path="url(#clip-73)"><g><clipPath id="clip-74"><path d="M 631.6 109.5 L 773.4 109.5 L 773.4 170.9 L 631.6 170.9 Z M 631.6 109.5 "></path></clipPath><g clip-path="url(#clip-74)"><image xlink:href="../../B284B839-1E2C-422F-9A4D-C38B5CF3EA60/assets/3CB25DBDE05737074110E2BCF1D65CFD.jpeg" width="450.00" height="450.00" transform="matrix(1.00, 0.00, -0.00, -1.00, 637.6, 167.9)"></image><path d="M 637.6 118.5 L 767.4 118.5 L 767.4 167.9 L 637.6 167.9 Z M 637.6 118.5 " fill="#009BFC" fill-opacity="0.50"></path></g></g></g></g><g><clipPath id="clip-75"><path d="M 636.1 116.9 L 768.9 116.9 L 768.9 167.9 L 636.1 167.9 Z M 636.1 116.9 "></path></clipPath><g clip-path="url(#clip-75)"><text xml:space="preserve" font-family="Helvetica-Light" font-size="20.0" fill="#FEFFFE" transform="matrix(1.50, 0.00, -0.00, -1.50, 644.0, 131.0)">M</text><text xml:space="preserve" font-family="Helvetica-Light" font-size="20.0" fill="#FEFFFE" transform="matrix(1.50, 0.00, -0.00, -1.50, 668.1, 131.0)">e</text><text xml:space="preserve" font-family="Helvetica-Light" font-size="20.0" fill="#FEFFFE" transform="matrix(1.50, 0.00, -0.00, -1.50, 683.8, 131.0)">s</text><text xml:space="preserve" font-family="Helvetica-Light" font-size="20.0" fill="#FEFFFE" transform="matrix(1.50, 0.00, -0.00, -1.50, 697.9, 131.0)">s</text><text xml:space="preserve" font-family="Helvetica-Light" font-size="20.0" fill="#FEFFFE" transform="matrix(1.50, 0.00, -0.00, -1.50, 712.0, 131.0)">a</text><text xml:space="preserve" font-family="Helvetica-Light" font-size="20.0" fill="#FEFFFE" transform="matrix(1.50, 0.00, -0.00, -1.50, 727.7, 131.0)">g</text><text xml:space="preserve" font-family="Helvetica-Light" font-size="20.0" fill="#FEFFFE" transform="matrix(1.50, 0.00, -0.00, -1.50, 745.1, 131.0)">e</text></g></g><g><clipPath id="clip-76"><path d="M 540.5 69.7 L 697.4 69.7 L 697.4 145.3 L 540.5 145.3 Z M 540.5 69.7 "></path></clipPath><g clip-path="url(#clip-76)"><image xlink:href="../../B284B839-1E2C-422F-9A4D-C38B5CF3EA60/assets/AF55A11A6054C352C9EC6BF56CBD976B.png" width="103.00" height="48.00" transform="matrix(1.49, 0.00, -0.00, -1.51, 542.0, 143.8)" opacity="0.50"></image></g></g><g><clipPath id="clip-77"><path d="M 546.5 142.3 L 691.4 142.3 L 691.4 78.7 L 546.5 78.7 Z M 546.5 142.3 "></path></clipPath><g clip-path="url(#clip-77)"><g><clipPath id="clip-78"><path d="M 540.5 69.7 L 697.4 69.7 L 697.4 145.3 L 540.5 145.3 Z M 540.5 69.7 "></path></clipPath><g clip-path="url(#clip-78)"><image xlink:href="../../B284B839-1E2C-422F-9A4D-C38B5CF3EA60/assets/3CB25DBDE05737074110E2BCF1D65CFD.jpeg" width="450.00" height="450.00" transform="matrix(1.00, 0.00, -0.00, -1.00, 546.5, 142.3)"></image><path d="M 546.5 78.7 L 691.4 78.7 L 691.4 142.3 L 546.5 142.3 Z M 546.5 78.7 " fill="#009BFC" fill-opacity="0.50"></path></g></g></g></g><g><clipPath id="clip-79"><path d="M 545.0 78.7 L 692.9 78.7 L 692.9 142.3 L 545.0 142.3 Z M 545.0 78.7 "></path></clipPath><g clip-path="url(#clip-79)"><text xml:space="preserve" font-family="Helvetica-Light" font-size="20.0" fill="#FEFFFE" transform="matrix(1.50, 0.00, -0.00, -1.50, 557.0, 100.0)">M</text><text xml:space="preserve" font-family="Helvetica-Light" font-size="20.0" fill="#FEFFFE" transform="matrix(1.50, 0.00, -0.00, -1.50, 582.0, 100.0)">e</text><text xml:space="preserve" font-family="Helvetica-Light" font-size="20.0" fill="#FEFFFE" transform="matrix(1.50, 0.00, -0.00, -1.50, 598.7, 100.0)">s</text><text xml:space="preserve" font-family="Helvetica-Light" font-size="20.0" fill="#FEFFFE" transform="matrix(1.50, 0.00, -0.00, -1.50, 613.7, 100.0)">s</text><text xml:space="preserve" font-family="Helvetica-Light" font-size="20.0" fill="#FEFFFE" transform="matrix(1.50, 0.00, -0.00, -1.50, 628.7, 100.0)">a</text><text xml:space="preserve" font-family="Helvetica-Light" font-size="20.0" fill="#FEFFFE" transform="matrix(1.50, 0.00, -0.00, -1.50, 645.4, 100.0)">g</text><text xml:space="preserve" font-family="Helvetica-Light" font-size="20.0" fill="#FEFFFE" transform="matrix(1.50, 0.00, -0.00, -1.50, 663.7, 100.0)">e</text></g></g></g></svg>