<?xml version="1.0" encoding="UTF-8"?><svg xmlns="http://www.w3.org/2000/svg" xmlns:xlink="http://www.w3.org/1999/xlink" clip-rule="evenodd" stroke-miterlimit="4.00" viewBox="0 0 165 164"><desc>SVG generated by Keynote</desc><defs></defs><g transform="matrix(1.00, 0.00, -0.00, -1.00, 0.0, 164.0)"><image xlink:href="A0A49A2F14FBD7C89E628BFABFBA661E.png" width="154.00" height="154.00" transform="matrix(1.00, 0.00, -0.00, -1.00, 8.7, 155.5)" opacity="0.50"></image><path d="M 10.1 154.0 L 154.6 154.0 L 154.6 10.0 L 10.1 10.0 Z M 10.1 154.0 " fill="#000000"></path><path d="M 0.0 0.0 L 144.4 0.0 L 144.4 144.0 L 0.0 144.0 Z M 0.0 0.0 " fill="none" stroke="#85878C" stroke-width="2.00" transform="matrix(1.00, 0.00, 0.00, -1.00, 10.1, 154.0)"></path><g><clipPath id="clip-0"><path d="M 9.1 11.0 L 155.6 11.0 L 155.6 153.0 L 9.1 153.0 Z M 9.1 11.0 "></path></clipPath><g clip-path="url(#clip-0)"><text xml:space="preserve" font-family="Helvetica-Light" font-size="24.0" fill="#FEFFFF" transform="matrix(1.00, 0.00, -0.00, -1.00, 45.0, 73.0)">T</text><text xml:space="preserve" font-family="Helvetica-Light" font-size="24.0" fill="#FEFFFF" transform="matrix(1.00, 0.00, -0.00, -1.00, 58.3, 73.0)">h</text><text xml:space="preserve" font-family="Helvetica-Light" font-size="24.0" fill="#FEFFFF" transform="matrix(1.00, 0.00, -0.00, -1.00, 71.7, 73.0)">r</text><text xml:space="preserve" font-family="Helvetica-Light" font-size="24.0" fill="#FEFFFF" transform="matrix(1.00, 0.00, -0.00, -1.00, 79.2, 73.0)">e</text><text xml:space="preserve" font-family="Helvetica-Light" font-size="24.0" fill="#FEFFFF" transform="matrix(1.00, 0.00, -0.00, -1.00, 92.6, 73.0)">a</text><text xml:space="preserve" font-family="Helvetica-Light" font-size="24.0" fill="#FEFFFF" transform="matrix(1.00, 0.00, -0.00, -1.00, 105.9, 73.0)">d</text></g></g></g></svg>