<?xml version="1.0" encoding="UTF-8"?><svg xmlns="http://www.w3.org/2000/svg" xmlns:xlink="http://www.w3.org/1999/xlink" clip-rule="evenodd" stroke-miterlimit="4.00" viewBox="0 0 1024 768"><desc>SVG generated by Keynote</desc><defs></defs><g transform="matrix(1.00, 0.00, -0.00, -1.00, 0.0, 768.0)"><path d="M 0.0 0.0 L 1024.0 0.0 L 1024.0 768.0 L 0.0 768.0 Z M 0.0 0.0 " fill="#FEFFFF"></path><image xlink:href="../../8BC3296F-D51B-449D-8430-11A566EACAEF/assets/B1545DBB99D73BEDB61FBBED980AF1FA.png" width="436.00" height="337.00" transform="matrix(1.00, 0.00, -0.00, -1.00, 67.2, 707.5)" opacity="0.70"></image><image xlink:href="../../8BC3296F-D51B-449D-8430-11A566EACAEF/assets/F0F887F839F9925ADD82DD08902C482B.png" width="396.00" height="297.00" transform="matrix(1.00, 0.00, -0.00, -1.00, 87.0, 697.0)"></image><image xlink:href="../../8BC3296F-D51B-449D-8430-11A566EACAEF/assets/A0A49A2F14FBD7C89E628BFABFBA661E.png" width="154.00" height="154.00" transform="matrix(1.00, 0.00, -0.00, -1.00, 86.7, 291.5)" opacity="0.50"></image><path d="M 88.1 290.0 L 232.6 290.0 L 232.6 146.0 L 88.1 146.0 Z M 88.1 290.0 " fill="#000000"></path><path d="M 0.0 0.0 L 144.4 0.0 L 144.4 144.0 L 0.0 144.0 Z M 0.0 0.0 " fill="none" stroke="#85878C" stroke-width="2.00" transform="matrix(1.00, 0.00, 0.00, -1.00, 88.1, 290.0)"></path><g><clipPath id="clip-8"><path d="M 87.1 147.0 L 233.6 147.0 L 233.6 289.0 L 87.1 289.0 Z M 87.1 147.0 "></path></clipPath><g clip-path="url(#clip-8)"><text xml:space="preserve" font-family="Helvetica-Light" font-size="24.0" fill="#FEFFFF" transform="matrix(1.00, 0.00, -0.00, -1.00, 123.0, 209.0)">T</text><text xml:space="preserve" font-family="Helvetica-Light" font-size="24.0" fill="#FEFFFF" transform="matrix(1.00, 0.00, -0.00, -1.00, 136.3, 209.0)">h</text><text xml:space="preserve" font-family="Helvetica-Light" font-size="24.0" fill="#FEFFFF" transform="matrix(1.00, 0.00, -0.00, -1.00, 149.7, 209.0)">r</text><text xml:space="preserve" font-family="Helvetica-Light" font-size="24.0" fill="#FEFFFF" transform="matrix(1.00, 0.00, -0.00, -1.00, 157.2, 209.0)">e</text><text xml:space="preserve" font-family="Helvetica-Light" font-size="24.0" fill="#FEFFFF" transform="matrix(1.00, 0.00, -0.00, -1.00, 170.6, 209.0)">a</text><text xml:space="preserve" font-family="Helvetica-Light" font-size="24.0" fill="#FEFFFF" transform="matrix(1.00, 0.00, -0.00, -1.00, 183.9, 209.0)">d</text></g></g><image xlink:href="../../8BC3296F-D51B-449D-8430-11A566EACAEF/assets/C0B377223C4946484081E7876F51A067.png" width="152.00" height="152.00" transform="matrix(1.00, 0.00, -0.00, -1.00, 337.3, 290.5)" opacity="0.50"></image><path d="M 337.8 290.0 L 482.2 290.0 L 482.2 146.0 L 337.8 146.0 Z M 337.8 290.0 " fill="#000000"></path><g><clipPath id="clip-9"><path d="M 335.8 146.0 L 484.2 146.0 L 484.2 290.0 L 335.8 290.0 Z M 335.8 146.0 "></path></clipPath><g clip-path="url(#clip-9)"><text xml:space="preserve" font-family="Helvetica-Light" font-size="24.0" fill="#FEFFFE" transform="matrix(1.00, 0.00, -0.00, -1.00, 372.0, 209.0)">L</text><text xml:space="preserve" font-family="Helvetica-Light" font-size="24.0" fill="#FEFFFE" transform="matrix(1.00, 0.00, -0.00, -1.00, 385.3, 209.0)">o</text><text xml:space="preserve" font-family="Helvetica-Light" font-size="24.0" fill="#FEFFFE" transform="matrix(1.00, 0.00, -0.00, -1.00, 398.7, 209.0)">o</text><text xml:space="preserve" font-family="Helvetica-Light" font-size="24.0" fill="#FEFFFE" transform="matrix(1.00, 0.00, -0.00, -1.00, 412.0, 209.0)">p</text><text xml:space="preserve" font-family="Helvetica-Light" font-size="24.0" fill="#FEFFFE" transform="matrix(1.00, 0.00, -0.00, -1.00, 426.7, 209.0)">e</text><text xml:space="preserve" font-family="Helvetica-Light" font-size="24.0" fill="#FEFFFE" transform="matrix(1.00, 0.00, -0.00, -1.00, 440.0, 209.0)">r</text></g></g><g><clipPath id="clip-10"><path d="M 606.9 228.7 L 725.6 228.7 L 725.6 240.3 L 606.9 240.3 Z M 606.9 228.7 "></path></clipPath><g clip-path="url(#clip-10)"><path d="M 0.0 0.0 L 107.1 0.0 L 108.1 0.0 " fill="none" stroke="#000000" stroke-width="2.00" transform="matrix(1.00, 0.00, 0.00, -1.00, 607.9, 234.5)"></path><path d="M 715.0 229.7 L 724.6 234.5 L 715.0 239.3 Z M 715.0 229.7 " fill="#000000"></path></g></g><g><clipPath id="clip-11"><path d="M 585.4 200.5 L 747.2 200.5 L 747.2 234.5 L 585.4 234.5 Z M 585.4 200.5 "></path></clipPath><g clip-path="url(#clip-11)"><text xml:space="preserve" font-family="Helvetica-Light" font-size="20.0" fill="#000000" transform="matrix(1.00, 0.00, -0.00, -1.00, 591.0, 210.0)">L</text><text xml:space="preserve" font-family="Helvetica-Light" font-size="20.0" fill="#000000" transform="matrix(1.00, 0.00, -0.00, -1.00, 602.1, 210.0)">o</text><text xml:space="preserve" font-family="Helvetica-Light" font-size="20.0" fill="#000000" transform="matrix(1.00, 0.00, -0.00, -1.00, 613.2, 210.0)">o</text><text xml:space="preserve" font-family="Helvetica-Light" font-size="20.0" fill="#000000" transform="matrix(1.00, 0.00, -0.00, -1.00, 624.4, 210.0)">p</text><text xml:space="preserve" font-family="Helvetica-Light" font-size="20.0" fill="#000000" transform="matrix(1.00, 0.00, -0.00, -1.00, 636.6, 210.0)">e</text><text xml:space="preserve" font-family="Helvetica-Light" font-size="20.0" fill="#000000" transform="matrix(1.00, 0.00, -0.00, -1.00, 647.7, 210.0)">r</text><text xml:space="preserve" font-family="Helvetica-Light" font-size="20.0" fill="#000000" transform="matrix(1.00, 0.00, -0.00, -1.00, 652.5, 210.0)">.</text><text xml:space="preserve" font-family="Helvetica-Light" font-size="20.0" fill="#000000" transform="matrix(1.00, 0.00, -0.00, -1.00, 658.1, 210.0)">p</text><text xml:space="preserve" font-family="Helvetica-Light" font-size="20.0" fill="#000000" transform="matrix(1.00, 0.00, -0.00, -1.00, 670.3, 210.0)">r</text><text xml:space="preserve" font-family="Helvetica-Light" font-size="20.0" fill="#000000" transform="matrix(1.00, 0.00, -0.00, -1.00, 676.6, 210.0)">e</text><text xml:space="preserve" font-family="Helvetica-Light" font-size="20.0" fill="#000000" transform="matrix(1.00, 0.00, -0.00, -1.00, 687.7, 210.0)">p</text><text xml:space="preserve" font-family="Helvetica-Light" font-size="20.0" fill="#000000" transform="matrix(1.00, 0.00, -0.00, -1.00, 699.9, 210.0)">a</text><text xml:space="preserve" font-family="Helvetica-Light" font-size="20.0" fill="#000000" transform="matrix(1.00, 0.00, -0.00, -1.00, 711.1, 210.0)">r</text><text xml:space="preserve" font-family="Helvetica-Light" font-size="20.0" fill="#000000" transform="matrix(1.00, 0.00, -0.00, -1.00, 717.4, 210.0)">e</text><text xml:space="preserve" font-family="Helvetica-Light" font-size="20.0" fill="#000000" transform="matrix(1.00, 0.00, -0.00, -1.00, 728.5, 210.0)">(</text><text xml:space="preserve" font-family="Helvetica-Light" font-size="20.0" fill="#000000" transform="matrix(1.00, 0.00, -0.00, -1.00, 735.1, 210.0)">)</text></g></g><image xlink:href="../../8BC3296F-D51B-449D-8430-11A566EACAEF/assets/06F1C494730F58F2EE02BB794D67B1D8.png" width="400.00" height="297.00" transform="matrix(1.00, 0.00, -0.00, -1.00, 85.0, 697.0)"></image><g><clipPath id="clip-12"><path d="M 807.7 80.0 L 1005.7 80.0 L 1005.7 352.0 L 807.7 352.0 Z M 807.7 80.0 "></path></clipPath><g clip-path="url(#clip-12)"><image xlink:href="../../8BC3296F-D51B-449D-8430-11A566EACAEF/assets/58A95E59B0F3251B475D6F44160FBDED.png" width="196.00" height="270.00" transform="matrix(1.00, 0.00, -0.00, -1.00, 808.7, 351.0)" opacity="0.50"></image><path d="M 814.7 347.0 L 998.7 347.0 L 998.7 89.0 L 814.7 89.0 Z M 814.7 347.0 " fill="#000000"></path><path d="M 0.0 0.0 L 184.0 0.0 L 184.0 258.0 L 0.0 258.0 Z M 0.0 0.0 " fill="none" stroke="#85878C" stroke-width="2.00" transform="matrix(1.00, 0.00, 0.00, -1.00, 814.7, 347.0)"></path></g></g><g><clipPath id="clip-13"><path d="M 813.7 90.0 L 999.7 90.0 L 999.7 348.0 L 813.7 348.0 Z M 813.7 90.0 "></path></clipPath><g clip-path="url(#clip-13)"><text xml:space="preserve" font-family="Helvetica-Light" font-size="24.0" fill="#FEFFFF" transform="matrix(1.00, 0.00, -0.00, -1.00, 820.0, 319.0)">L</text><text xml:space="preserve" font-family="Helvetica-Light" font-size="24.0" fill="#FEFFFF" transform="matrix(1.00, 0.00, -0.00, -1.00, 833.3, 319.0)">o</text><text xml:space="preserve" font-family="Helvetica-Light" font-size="24.0" fill="#FEFFFF" transform="matrix(1.00, 0.00, -0.00, -1.00, 846.7, 319.0)">o</text><text xml:space="preserve" font-family="Helvetica-Light" font-size="24.0" fill="#FEFFFF" transform="matrix(1.00, 0.00, -0.00, -1.00, 860.0, 319.0)">p</text><text xml:space="preserve" font-family="Helvetica-Light" font-size="24.0" fill="#FEFFFF" transform="matrix(1.00, 0.00, -0.00, -1.00, 874.7, 319.0)">e</text><text xml:space="preserve" font-family="Helvetica-Light" font-size="24.0" fill="#FEFFFF" transform="matrix(1.00, 0.00, -0.00, -1.00, 888.0, 319.0)">r</text><text xml:space="preserve" font-family="Helvetica-Light" font-size="24.0" fill="#FEFFFF" transform="matrix(1.00, 0.00, -0.00, -1.00, 896.0, 319.0)">T</text><text xml:space="preserve" font-family="Helvetica-Light" font-size="24.0" fill="#FEFFFF" transform="matrix(1.00, 0.00, -0.00, -1.00, 909.4, 319.0)">h</text><text xml:space="preserve" font-family="Helvetica-Light" font-size="24.0" fill="#FEFFFF" transform="matrix(1.00, 0.00, -0.00, -1.00, 922.7, 319.0)">r</text><text xml:space="preserve" font-family="Helvetica-Light" font-size="24.0" fill="#FEFFFF" transform="matrix(1.00, 0.00, -0.00, -1.00, 930.3, 319.0)">e</text><text xml:space="preserve" font-family="Helvetica-Light" font-size="24.0" fill="#FEFFFF" transform="matrix(1.00, 0.00, -0.00, -1.00, 943.6, 319.0)">a</text><text xml:space="preserve" font-family="Helvetica-Light" font-size="24.0" fill="#FEFFFF" transform="matrix(1.00, 0.00, -0.00, -1.00, 957.0, 319.0)">d</text></g></g><g><clipPath id="clip-14"><path d="M 852.7 114.0 L 960.7 114.0 L 960.7 318.0 L 852.7 318.0 Z M 852.7 114.0 "></path></clipPath><g clip-path="url(#clip-14)"><image xlink:href="../../8BC3296F-D51B-449D-8430-11A566EACAEF/assets/685759B0EC130A20371B41053208D1BC.png" width="106.00" height="202.00" transform="matrix(1.00, 0.00, -0.00, -1.00, 853.7, 317.0)" opacity="0.50"></image><path d="M 856.7 316.0 L 956.7 316.0 L 956.7 120.0 L 856.7 120.0 Z M 856.7 316.0 " fill="#52575F"></path></g></g><g><clipPath id="clip-15"><path d="M 854.7 120.0 L 958.7 120.0 L 958.7 318.0 L 854.7 318.0 Z M 854.7 120.0 "></path></clipPath><g clip-path="url(#clip-15)"><text xml:space="preserve" font-family="Helvetica-Light" font-size="24.0" fill="#FEFFFE" transform="matrix(1.00, 0.00, -0.00, -1.00, 869.0, 289.0)">L</text><text xml:space="preserve" font-family="Helvetica-Light" font-size="24.0" fill="#FEFFFE" transform="matrix(1.00, 0.00, -0.00, -1.00, 882.3, 289.0)">o</text><text xml:space="preserve" font-family="Helvetica-Light" font-size="24.0" fill="#FEFFFE" transform="matrix(1.00, 0.00, -0.00, -1.00, 895.7, 289.0)">o</text><text xml:space="preserve" font-family="Helvetica-Light" font-size="24.0" fill="#FEFFFE" transform="matrix(1.00, 0.00, -0.00, -1.00, 909.0, 289.0)">p</text><text xml:space="preserve" font-family="Helvetica-Light" font-size="24.0" fill="#FEFFFE" transform="matrix(1.00, 0.00, -0.00, -1.00, 923.7, 289.0)">e</text><text xml:space="preserve" font-family="Helvetica-Light" font-size="24.0" fill="#FEFFFE" transform="matrix(1.00, 0.00, -0.00, -1.00, 937.0, 289.0)">r</text></g></g></g></svg>